<svg xmlns="http://www.w3.org/2000/svg" class="ionicon" viewBox="0 0 512 512"><title>Musical Notes</title><path d="M429.46 32.07c-23.6 6.53-205.55 58.81-250.54 71.43a4 4 0 00-2.92 3.83v247a2 2 0 01-1.33 1.89l-27.85 9.55c-19 7.44-66.82 16.68-66.82 59.19 0 35.54 24.63 51.54 45.86 54.28a52.06 52.06 0 007.81.8c7.37 0 36.38-7.08 53.3-18.08C208 448.25 208 448 208 412V202c0-.9.62-.84 1.48-1.07l188-51.92a2 2 0 012.53 2v155.54a2 2 0 01-1.36 1.89c-8.9 3-19.23 6.5-26.48 9.12C341.39 328.68 304 335.65 304 376c0 38.51 28.26 54.58 46.3 55.83a87.37 87.37 0 0021.33-1c9-1.38 24.09-5.9 38.14-14.86C432 401.79 432 401.51 432 360V34a2 2 0 00-2.54-1.93z"/></svg>
<svg xmlns="http://www.w3.org/2000/svg" class="ionicon" viewBox="0 0 512 512"><title>Play</title><path d="M96 448l320-192L96 64v384z"/></svg>
<svg xmlns="http://www.w3.org/2000/svg" class="ionicon" viewBox="0 0 512 512"><title>Radio</title><ellipse cx="256" cy="256" rx="36" ry="35.99"/><path d="M188.4 350.8l-14.62-16.44a117.91 117.91 0 010-156.71l14.62-16.43 32.87 29.24-14.62 16.43a73.93 73.93 0 000 98.25l14.62 16.44zM323.6 350.8l-32.89-29.22 14.62-16.44a73.93 73.93 0 000-98.25l-14.62-16.43 32.87-29.24 14.62 16.43a117.91 117.91 0 010 156.71z"/><path d="M138.24 401.76l-15-16.06a189.85 189.85 0 010-259.4l15-16.07 32.14 30.05-15 16.06a145.88 145.88 0 000 199.32l15 16.06zM373.76 401.76l-32.14-30 15-16.06a145.88 145.88 0 000-199.32l-15-16.06 32.14-30 15 16.07a189.85 189.85 0 010 259.4z"/><path d="M430.73 447l-32.79-29.33 14.66-16.39a218.2 218.2 0 000-290.56l-14.67-16.38L430.72 65l14.67 16.39a262.18 262.18 0 010 349.22zM81.27 447L66.6 430.61a262.18 262.18 0 010-349.22L81.28 65l32.79 29.34-14.68 16.38a218.2 218.2 0 000 290.56l14.66 16.39z"/></svg>
